<?xml version="1.0" standalone="no"?>
<!DOCTYPE svg PUBLIC "-//W3C//DTD SVG 20010904//EN"
 "http://www.w3.org/TR/2001/REC-SVG-20010904/DTD/svg10.dtd">
<svg version="1.0" xmlns="http://www.w3.org/2000/svg"
 width="413.000000pt" height="166.000000pt" viewBox="0 0 413.000000 166.000000"
 preserveAspectRatio="xMidYMid meet">

<g transform="translate(0.000000,166.000000) scale(0.100000,-0.100000)"
fill="#000000" stroke="none">
<path d="M1917 1645 c-341 -65 -603 -323 -673 -662 -22 -106 -15 -281 16 -378
93 -293 327 -508 631 -580 105 -25 279 -23 384 4 164 43 299 124 416 249 107
115 164 218 206 373 25 95 22 280 -6 383 -77 287 -315 521 -606 596 -106 28
-266 34 -368 15z m315 -154 c190 -49 347 -172 438 -343 53 -99 71 -165 77
-279 11 -206 -49 -360 -197 -510 -72 -74 -99 -93 -180 -132 -113 -54 -183 -70
-305 -70 -182 1 -339 67 -470 198 -89 89 -134 158 -173 267 -24 65 -26 87 -26
203 0 115 3 139 28 210 64 186 180 321 350 407 133 67 311 86 458 49z"/>
<path d="M0 1060 l0 -80 555 0 555 0 0 80 0 80 -555 0 -555 0 0 -80z"/>
<path d="M3017 1133 c-4 -3 -7 -39 -7 -80 l0 -73 558 2 557 3 0 75 0 75 -551
3 c-303 1 -554 -1 -557 -5z"/>
<path d="M0 615 l0 -75 555 0 555 0 0 75 0 75 -555 0 -555 0 0 -75z"/>
<path d="M3010 615 l0 -75 560 0 560 0 0 75 0 75 -560 0 -560 0 0 -75z"/>
</g>
</svg>
